<svg width="24" height="24" viewBox="0 0 24 24" fill="none" xmlns="http://www.w3.org/2000/svg">
<g id="Iconly/Light/Lock">
<path id="Stroke 1" d="M16.4235 9.4478V7.3008C16.4235 4.7878 14.3855 2.7498 11.8725 2.7498C9.35949 2.7388 7.31349 4.7668 7.30249 7.2808V7.3008V9.4478" stroke="#130F26" stroke-width="1.5" stroke-linecap="round" stroke-linejoin="round"/>
<path id="Stroke 3" fill-rule="evenodd" clip-rule="evenodd" d="M15.6832 21.2496H8.04224C5.94824 21.2496 4.25024 19.5526 4.25024 17.4576V13.1686C4.25024 11.0736 5.94824 9.3766 8.04224 9.3766H15.6832C17.7772 9.3766 19.4752 11.0736 19.4752 13.1686V17.4576C19.4752 19.5526 17.7772 21.2496 15.6832 21.2496Z" stroke="#130F26" stroke-width="1.5" stroke-linecap="round" stroke-linejoin="round"/>
<path id="Stroke 5" d="M11.8628 14.2027V16.4237" stroke="#130F26" stroke-width="1.5" stroke-linecap="round" stroke-linejoin="round"/>
<g id="&#226;&#134;&#179; Icon Color">
<path d="M12.6128 14.2027C12.6128 13.7885 12.277 13.4527 11.8628 13.4527C11.4486 13.4527 11.1128 13.7885 11.1128 14.2027V16.4237C11.1128 16.8379 11.4486 17.1737 11.8628 17.1737C12.277 17.1737 12.6128 16.8379 12.6128 16.4237V14.2027Z" fill="#C4C4C4"/>
<path fill-rule="evenodd" clip-rule="evenodd" d="M6.5525 7.27752C6.56531 4.34993 8.9476 1.98788 11.8741 1.9998C14.8006 2.00068 17.1735 4.37413 17.1735 7.3008V8.87669C18.9498 9.49331 20.2252 11.1815 20.2252 13.1686V17.4576C20.2252 19.9669 18.1913 21.9996 15.6832 21.9996H8.04224C5.53416 21.9996 3.50024 19.9669 3.50024 17.4576V13.1686C3.50024 11.1813 4.77591 9.49299 6.55249 8.87652L6.5525 7.27752ZM15.6735 7.3008V8.6266H8.05249V7.28252C8.06252 5.18338 9.77101 3.49062 11.8692 3.4998H11.8725C13.9713 3.4998 15.6735 5.20201 15.6735 7.3008ZM8.04224 10.1266C6.36233 10.1266 5.00024 11.4879 5.00024 13.1686V17.4576C5.00024 19.1383 6.36233 20.4996 8.04224 20.4996H15.6832C17.3632 20.4996 18.7252 19.1383 18.7252 17.4576V13.1686C18.7252 11.4879 17.3632 10.1266 15.6832 10.1266H8.04224Z" fill="#C4C4C4"/>
</g>
</g>
</svg>
